<?xml version="1.0" standalone="no"?>
<!DOCTYPE svg PUBLIC "-//W3C//DTD SVG 20010904//EN"
 "http://www.w3.org/TR/2001/REC-SVG-20010904/DTD/svg10.dtd">
<svg version="1.0" xmlns="http://www.w3.org/2000/svg"
 width="418.000000pt" height="580.000000pt" viewBox="0 0 418.000000 580.000000"
 preserveAspectRatio="xMidYMid meet">

<g transform="translate(0.000000,580.000000) scale(0.100000,-0.100000)"
fill="#000000" stroke="none">
<path d="M1876 5019 c-494 -32 -1022 -150 -1568 -352 l-138 -51 0 -623 0 -623
1920 0 1920 0 0 623 0 623 -137 51 c-561 207 -1072 320 -1598 353 -176 11
-211 11 -399 -1z m64 -172 c23 -12 42 -26 42 -31 -1 -5 -47 -24 -104 -43 -211
-68 -476 -221 -667 -382 -46 -39 -85 -71 -87 -71 -12 0 90 132 159 206 136
145 304 256 486 319 84 30 118 30 171 2z m243 -74 l50 -28 -59 -12 c-466 -96
-759 -240 -1102 -541 l-97 -85 85 88 c254 261 555 451 900 566 63 21 128 38
144 39 15 0 51 -12 79 -27z m159 -94 c26 -17 46 -34 43 -39 -2 -4 -42 -10 -87
-13 -371 -27 -862 -238 -1284 -552 -109 -81 -115 -84 -81 -43 43 52 199 190
289 256 257 188 560 319 918 397 138 31 145 30 202 -6z m201 -127 c20 -20 37
-39 37 -43 0 -3 -37 -9 -82 -12 -113 -9 -338 -50 -483 -87 -375 -98 -696 -238
-1133 -496 -37 -22 75 85 168 159 341 274 771 452 1275 526 137 21 150 18 218
-47z m798 -78 l44 -6 -82 -83 c-125 -125 -176 -245 -188 -448 -9 -144 -15
-157 -77 -187 -75 -35 -75 -35 -52 -9 48 54 54 95 29 189 -29 106 -9 254 49
369 14 28 26 53 26 56 0 12 -469 4 -606 -10 -456 -48 -886 -175 -1319 -388
-93 -47 -210 -108 -259 -136 -118 -68 -139 -62 -45 13 486 389 1214 604 2154
635 121 4 234 9 251 9 17 1 51 -1 75 -4z"/>
<path d="M170 3295 l0 -25 1920 0 1920 0 0 25 0 25 -1920 0 -1920 0 0 -25z"/>
<path d="M765 3128 c-42 -22 -45 -36 -45 -190 l0 -148 50 0 50 0 0 65 0 65
150 0 150 0 0 45 0 45 -151 0 -151 0 14 23 c15 21 23 22 152 25 l136 3 0 39 0
40 -167 0 c-102 0 -176 -5 -188 -12z"/>
<path d="M1355 3128 c-41 -22 -45 -38 -45 -164 0 -158 5 -165 116 -175 44 -4
125 -8 182 -8 l102 -1 0 45 0 45 -132 0 c-137 0 -150 3 -161 33 -6 16 5 17
143 17 l150 0 0 45 0 45 -151 0 -151 0 14 23 c15 21 23 22 152 25 l136 3 0 39
0 40 -167 0 c-102 0 -176 -5 -188 -12z"/>
<path d="M1895 2971 c-4 -94 -4 -175 0 -180 3 -6 28 -11 56 -11 l49 0 0 103 0
102 102 -102 c101 -102 101 -103 150 -103 l48 0 0 180 0 180 -55 0 -55 0 0
-96 0 -96 -91 96 -91 96 -53 0 -52 0 -8 -169z"/>
<path d="M2528 3124 c-39 -21 -50 -69 -46 -214 l3 -125 53 -3 52 -3 0 70 0 71
95 0 95 0 0 -65 0 -65 55 0 55 0 0 140 c0 149 -7 181 -47 199 -37 17 -282 14
-315 -5z m233 -74 c10 -6 19 -17 19 -25 0 -12 -18 -15 -95 -15 -52 0 -95 3
-95 7 0 3 7 15 17 25 12 13 31 18 75 18 33 0 68 -5 79 -10z"/>
<path d="M3060 3133 c0 -31 66 -246 86 -280 31 -53 49 -63 116 -63 92 0 116
31 167 221 17 64 31 119 31 122 0 4 -24 7 -53 7 l-53 0 -23 -97 c-32 -132 -45
-163 -71 -163 -26 0 -39 31 -71 163 l-23 97 -53 0 c-29 0 -53 -3 -53 -7z"/>
<path d="M177 2653 c-4 -3 -7 -15 -7 -25 0 -17 65 -18 1921 -18 l1920 0 -3 23
-3 22 -1911 3 c-1051 1 -1914 -1 -1917 -5z"/>
<path d="M1617 2300 c-183 -160 -181 -488 4 -655 l40 -36 -10 -50 c-6 -28 -11
-77 -11 -109 l0 -60 -102 0 c-57 0 -142 7 -190 17 -84 16 -89 16 -108 -2 -41
-37 -13 -126 67 -216 118 -130 313 -183 483 -130 l62 19 51 -24 c29 -13 76
-29 105 -35 34 -7 52 -15 52 -25 0 -29 -49 -133 -99 -211 -28 -44 -51 -89 -51
-100 0 -24 36 -58 71 -67 41 -9 137 12 207 46 76 37 168 132 205 210 33 70 51
166 44 230 -6 45 -3 56 19 85 14 19 38 60 52 92 l27 59 51 -34 c57 -38 151
-135 204 -209 41 -58 72 -67 113 -35 40 32 61 114 54 217 -8 136 -84 269 -193
342 -65 42 -143 70 -214 75 -58 4 -61 5 -102 56 -24 29 -47 59 -53 66 -7 10 3
27 40 65 66 67 165 132 260 169 85 32 115 54 115 81 0 29 -48 76 -105 103
-244 116 -549 -10 -630 -261 -16 -50 -18 -52 -66 -62 -27 -6 -65 -17 -85 -26
l-35 -14 -29 46 c-44 69 -69 145 -86 257 -20 134 -29 150 -81 154 -34 3 -47
-2 -76 -28z"/>
</g>
</svg>
